# xmcd CD database file
# Copyright (C) 1995-1998 Ti Kan
#
# Track frame offsets:
#	150
#	18935
#	38305
#	57855
#	79117
#	102347
#	120722
#	146645
#	161050
#	183880
#	206040
#	223282
#
# Disc length: 3172 seconds
#
# Revision: 1
# Processed by: cddbd v1.4b41PL1 Copyright (c) Steve Scherf et al.
# Submitted via: CDex 1.30
#
DISCID=a30c620c
DTITLE=Ferrante - Musical Gems
DYEAR=2000
DGENRE=Blues
TTITLE0=All the Way
TTITLE1=Blue Tango
TTITLE2=Charade
TTITLE3=Secret Love
TTITLE4=Lara`s Theme
TTITLE5=Ebb Tide
TTITLE6=Little Green Apples
TTITLE7=Rachmaninoff`s Paganini Theme
TTITLE8=Never on Sunday
TTITLE9=Pama`s Angels
TTITLE10=What now my love
TTITLE11=The breeze and I
EXTD=\n\n\nYEAR: 2000  ID3G:   0
EXTT0=
EXTT1=
EXTT2=
EXTT3=
EXTT4=
EXTT5=
EXTT6=
EXTT7=
EXTT8=
EXTT9=
EXTT10=
EXTT11=
PLAYORDER=
